<?xml version="1.0" encoding="UTF-8" standalone="no"?>
<!DOCTYPE svg PUBLIC "-//W3C//DTD SVG 1.1//EN"
 "http://www.w3.org/Graphics/SVG/1.1/DTD/svg11.dtd">
<!-- Generated by graphviz version 2.40.1 (20161225.0304)
 -->
<!-- Title: graph_name Pages: 1 -->
<svg width="1003pt" height="428pt"
 viewBox="0.00 0.00 1002.74 427.65" xmlns="http://www.w3.org/2000/svg" xmlns:xlink="http://www.w3.org/1999/xlink">
<g id="graph0" class="graph" transform="scale(1 1) rotate(0) translate(4 423.6468)">
<title>graph_name</title>
<polygon fill="#ffffff" stroke="transparent" points="-4,4 -4,-423.6468 998.7351,-423.6468 998.7351,4 -4,4"/>
<!-- SectionContainer1 -->
<g id="node1" class="node">
<title>SectionContainer1</title>
<ellipse fill="none" stroke="#ff0000" cx="171.7351" cy="-292.43" rx="156.0415" ry="37.4533"/>
<text text-anchor="middle" x="171.7351" y="-303.73" font-family="Times,serif" font-size="14.00" fill="#000000">SectionContainer1</text>
<text text-anchor="middle" x="171.7351" y="-288.73" font-family="Times,serif" font-size="14.00" fill="#000000">[name=.text]</text>
<text text-anchor="middle" x="171.7351" y="-273.73" font-family="Times,serif" font-size="14.00" fill="#000000">[virtual_address=0x400000]</text>
</g>
<!-- SectionContainer2 -->
<g id="node2" class="node">
<title>SectionContainer2</title>
<ellipse fill="none" stroke="#ff0000" cx="152.7351" cy="-181.4767" rx="152.9705" ry="37.4533"/>
<text text-anchor="middle" x="152.7351" y="-192.7767" font-family="Times,serif" font-size="14.00" fill="#000000">SectionContainer2</text>
<text text-anchor="middle" x="152.7351" y="-177.7767" font-family="Times,serif" font-size="14.00" fill="#000000">[.rdata]</text>
<text text-anchor="middle" x="152.7351" y="-162.7767" font-family="Times,serif" font-size="14.00" fill="#000000">virtual_address=0x600000]</text>
</g>
<!-- SectionContainer1&#45;&gt;SectionContainer2 -->
<g id="edge1" class="edge">
<title>SectionContainer1&#45;&gt;SectionContainer2</title>
<path fill="none" stroke="#000000" d="M165.3025,-254.8662C163.8788,-246.552 162.352,-237.6363 160.8705,-228.9848"/>
<polygon fill="#000000" stroke="#000000" points="164.2987,-228.2675 159.161,-219.0017 157.3991,-229.449 164.2987,-228.2675"/>
</g>
<!-- SectionChain1_1 -->
<g id="node3" class="node">
<title>SectionChain1_1</title>
<ellipse fill="none" stroke="#000000" cx="412.7351" cy="-181.4767" rx="89.8845" ry="18"/>
<text text-anchor="middle" x="412.7351" y="-177.7767" font-family="Times,serif" font-size="14.00" fill="#000000">SectionChain1_1</text>
</g>
<!-- SectionContainer1&#45;&gt;SectionChain1_1 -->
<g id="edge2" class="edge">
<title>SectionContainer1&#45;&gt;SectionChain1_1</title>
<path fill="none" stroke="#ff0000" d="M244.043,-259.1403C284.0908,-240.7028 332.6412,-218.3508 367.3551,-202.369"/>
<polygon fill="#ff0000" stroke="#ff0000" points="369.1409,-205.4 376.7607,-198.0388 366.2135,-199.0415 369.1409,-205.4"/>
</g>
<!-- SectionChain2_1 -->
<g id="node5" class="node">
<title>SectionChain2_1</title>
<ellipse fill="none" stroke="#000000" cx="412.7351" cy="-90" rx="89.8845" ry="18"/>
<text text-anchor="middle" x="412.7351" y="-86.3" font-family="Times,serif" font-size="14.00" fill="#000000">SectionChain2_1</text>
</g>
<!-- SectionContainer2&#45;&gt;SectionChain2_1 -->
<g id="edge4" class="edge">
<title>SectionContainer2&#45;&gt;SectionChain2_1</title>
<path fill="none" stroke="#ff0000" d="M240.3967,-150.6344C279.4426,-136.8967 324.2088,-121.1465 358.3287,-109.142"/>
<polygon fill="#ff0000" stroke="#ff0000" points="359.8343,-112.3226 368.1059,-105.702 357.5111,-105.7194 359.8343,-112.3226"/>
</g>
<!-- SectionChain1_2 -->
<g id="node4" class="node">
<title>SectionChain1_2</title>
<ellipse fill="none" stroke="#000000" cx="628.7351" cy="-90" rx="89.8845" ry="18"/>
<text text-anchor="middle" x="628.7351" y="-86.3" font-family="Times,serif" font-size="14.00" fill="#000000">SectionChain1_2</text>
</g>
<!-- SectionChain1_1&#45;&gt;SectionChain1_2 -->
<g id="edge3" class="edge">
<title>SectionChain1_1&#45;&gt;SectionChain1_2</title>
<path fill="none" stroke="#ff0000" d="M451.3515,-165.1225C487.4843,-149.8201 541.5853,-126.9082 580.5339,-110.4134"/>
<polygon fill="#ff0000" stroke="#ff0000" points="582.246,-113.4892 590.0894,-106.3666 579.5162,-107.0435 582.246,-113.4892"/>
</g>
<!-- SectionChain1_1&#45;&gt;SectionChain2_1 -->
<g id="edge12" class="edge">
<title>SectionChain1_1&#45;&gt;SectionChain2_1</title>
<path fill="none" stroke="#0000ff" stroke-dasharray="5,2" d="M412.7351,-163.4038C412.7351,-150.499 412.7351,-132.8876 412.7351,-118.1501"/>
<polygon fill="#0000ff" stroke="#0000ff" points="416.2352,-118.0353 412.7351,-108.0353 409.2352,-118.0353 416.2352,-118.0353"/>
</g>
<!-- SectionChain2_2 -->
<g id="node6" class="node">
<title>SectionChain2_2</title>
<ellipse fill="none" stroke="#000000" cx="628.7351" cy="-18" rx="89.8845" ry="18"/>
<text text-anchor="middle" x="628.7351" y="-14.3" font-family="Times,serif" font-size="14.00" fill="#000000">SectionChain2_2</text>
</g>
<!-- SectionChain1_2&#45;&gt;SectionChain2_2 -->
<g id="edge14" class="edge">
<title>SectionChain1_2&#45;&gt;SectionChain2_2</title>
<path fill="none" stroke="#0000ff" stroke-dasharray="5,2" d="M628.7351,-71.8314C628.7351,-64.131 628.7351,-54.9743 628.7351,-46.4166"/>
<polygon fill="#0000ff" stroke="#0000ff" points="632.2352,-46.4132 628.7351,-36.4133 625.2352,-46.4133 632.2352,-46.4132"/>
</g>
<!-- SectionChain2_1&#45;&gt;SectionChain2_2 -->
<g id="edge5" class="edge">
<title>SectionChain2_1&#45;&gt;SectionChain2_2</title>
<path fill="none" stroke="#ff0000" d="M459.0725,-74.5542C492.2717,-63.4878 537.1618,-48.5244 572.4281,-36.769"/>
<polygon fill="#ff0000" stroke="#ff0000" points="573.7221,-40.0271 582.1021,-33.5443 571.5085,-33.3863 573.7221,-40.0271"/>
</g>
<!-- ObjectChain1 -->
<g id="node7" class="node">
<title>ObjectChain1</title>
<ellipse fill="none" stroke="#0000ff" cx="530.7351" cy="-392.7767" rx="127.9727" ry="26.7407"/>
<text text-anchor="middle" x="530.7351" y="-396.5767" font-family="Times,serif" font-size="14.00" fill="#000000">ObjectChain1</text>
<text text-anchor="middle" x="530.7351" y="-381.5767" font-family="Times,serif" font-size="14.00" fill="#000000"> filename=input01.obj </text>
</g>
<!-- ObjectChain1&#45;&gt;SectionChain1_1 -->
<g id="edge11" class="edge">
<title>ObjectChain1&#45;&gt;SectionChain1_1</title>
<path fill="none" stroke="#0000ff" stroke-dasharray="5,2" d="M447.5919,-372.2903C426.4699,-362.9313 406.2385,-349.4017 393.7351,-329.9066 370.1954,-293.2041 385.688,-240.8279 399.151,-209.1053"/>
<polygon fill="#0000ff" stroke="#0000ff" points="402.5234,-210.1361 403.3987,-199.5775 396.13,-207.2858 402.5234,-210.1361"/>
</g>
<!-- ObjectChain2 -->
<g id="node8" class="node">
<title>ObjectChain2</title>
<ellipse fill="none" stroke="#0000ff" cx="530.7351" cy="-292.43" rx="127.9727" ry="26.7407"/>
<text text-anchor="middle" x="530.7351" y="-296.23" font-family="Times,serif" font-size="14.00" fill="#000000">ObjectChain2</text>
<text text-anchor="middle" x="530.7351" y="-281.23" font-family="Times,serif" font-size="14.00" fill="#000000"> filename=input02.obj </text>
</g>
<!-- ObjectChain1&#45;&gt;ObjectChain2 -->
<g id="edge6" class="edge">
<title>ObjectChain1&#45;&gt;ObjectChain2</title>
<path fill="none" stroke="#000000" d="M530.7351,-365.8856C530.7351,-354.75 530.7351,-341.6485 530.7351,-329.6168"/>
<polygon fill="#000000" stroke="#000000" points="534.2352,-329.3953 530.7351,-319.3953 527.2352,-329.3953 534.2352,-329.3953"/>
</g>
<!-- SymbolChain1_1 -->
<g id="node9" class="node">
<title>SymbolChain1_1</title>
<ellipse fill="none" stroke="#00ff00" cx="765.7351" cy="-292.43" rx="89.0842" ry="18"/>
<text text-anchor="middle" x="765.7351" y="-288.73" font-family="Times,serif" font-size="14.00" fill="#000000">SymbolChain1_1</text>
</g>
<!-- ObjectChain1&#45;&gt;SymbolChain1_1 -->
<g id="edge9" class="edge">
<title>ObjectChain1&#45;&gt;SymbolChain1_1</title>
<path fill="none" stroke="#000000" d="M587.3225,-368.6135C627.3873,-351.5055 680.512,-328.8208 718.3467,-312.6652"/>
<polygon fill="#000000" stroke="#000000" points="719.7968,-315.8518 727.619,-308.7058 717.0478,-309.4141 719.7968,-315.8518"/>
</g>
<!-- ObjectChain2&#45;&gt;SectionChain1_2 -->
<g id="edge13" class="edge">
<title>ObjectChain2&#45;&gt;SectionChain1_2</title>
<path fill="none" stroke="#0000ff" stroke-dasharray="5,2" d="M527.8673,-265.3482C525.8815,-233.8275 526.882,-181.3364 549.7351,-144 557.7684,-130.8754 570.3306,-120.179 583.0927,-111.8718"/>
<polygon fill="#0000ff" stroke="#0000ff" points="585.1878,-114.6938 591.9067,-106.5019 581.5457,-108.7158 585.1878,-114.6938"/>
</g>
<!-- SymbolChain2_1 -->
<g id="node11" class="node">
<title>SymbolChain2_1</title>
<ellipse fill="none" stroke="#00ff00" cx="843.7351" cy="-181.4767" rx="89.0842" ry="18"/>
<text text-anchor="middle" x="843.7351" y="-177.7767" font-family="Times,serif" font-size="14.00" fill="#000000">SymbolChain2_1</text>
</g>
<!-- ObjectChain2&#45;&gt;SymbolChain2_1 -->
<g id="edge17" class="edge">
<title>ObjectChain2&#45;&gt;SymbolChain2_1</title>
<path fill="none" stroke="#000000" d="M599.2191,-269.7245C641.5643,-255.5121 696.9603,-236.6074 745.7351,-218.9533 761.1905,-213.3592 777.9261,-207.0526 793.1192,-201.2307"/>
<polygon fill="#000000" stroke="#000000" points="794.7747,-204.344 802.8516,-197.4873 792.2617,-197.8106 794.7747,-204.344"/>
</g>
<!-- SymbolChain1_1&#45;&gt;SectionChain1_1 -->
<g id="edge7" class="edge">
<title>SymbolChain1_1&#45;&gt;SectionChain1_1</title>
<path fill="none" stroke="#00ff00" d="M725.485,-276.1556C707.8803,-269.2671 686.9093,-261.3692 667.7351,-254.9533 632.1726,-243.0537 538.7238,-216.5762 475.3893,-198.8729"/>
<polygon fill="#00ff00" stroke="#00ff00" points="476.0694,-195.429 465.4965,-196.1105 474.1867,-202.1711 476.0694,-195.429"/>
</g>
<!-- SymbolChain1_2 -->
<g id="node10" class="node">
<title>SymbolChain1_2</title>
<ellipse fill="none" stroke="#00ff00" cx="647.7351" cy="-181.4767" rx="89.0842" ry="18"/>
<text text-anchor="middle" x="647.7351" y="-177.7767" font-family="Times,serif" font-size="14.00" fill="#000000">SymbolChain1_2</text>
</g>
<!-- SymbolChain1_1&#45;&gt;SymbolChain1_2 -->
<g id="edge10" class="edge">
<title>SymbolChain1_1&#45;&gt;SymbolChain1_2</title>
<path fill="none" stroke="#000000" d="M746.7763,-274.6034C727.0787,-256.0821 696.1069,-226.9598 674.0455,-206.2159"/>
<polygon fill="#000000" stroke="#000000" points="676.3296,-203.5594 666.6468,-199.259 671.5345,-208.6591 676.3296,-203.5594"/>
</g>
<!-- SymbolChain2_2 -->
<g id="node12" class="node">
<title>SymbolChain2_2</title>
<ellipse fill="none" stroke="#00ff00" cx="843.7351" cy="-90" rx="89.0842" ry="18"/>
<text text-anchor="middle" x="843.7351" y="-86.3" font-family="Times,serif" font-size="14.00" fill="#000000">SymbolChain2_2</text>
</g>
<!-- SymbolChain1_1&#45;&gt;SymbolChain2_2 -->
<g id="edge20" class="edge">
<title>SymbolChain1_1&#45;&gt;SymbolChain2_2</title>
<path fill="none" stroke="#a020f0" d="M837.9033,-281.6919C875.6076,-272.017 918.6048,-253.6748 941.7351,-218.9533 960.2039,-191.2292 958.6786,-172.6818 941.7351,-144 932.7736,-128.8302 917.8607,-117.6312 902.3385,-109.4935"/>
<polygon fill="#a020f0" stroke="#a020f0" points="903.6944,-106.2613 893.1692,-105.0491 900.6412,-112.5604 903.6944,-106.2613"/>
</g>
<!-- SymbolChain1_2&#45;&gt;SectionChain1_2 -->
<g id="edge8" class="edge">
<title>SymbolChain1_2&#45;&gt;SectionChain1_2</title>
<path fill="none" stroke="#00ff00" d="M643.9813,-163.4038C641.3009,-150.499 637.6429,-132.8876 634.5819,-118.1501"/>
<polygon fill="#00ff00" stroke="#00ff00" points="637.9416,-117.1145 632.4811,-108.0353 631.0879,-118.5381 637.9416,-117.1145"/>
</g>
<!-- SymbolChain2_1&#45;&gt;SectionChain1_2 -->
<g id="edge15" class="edge">
<title>SymbolChain2_1&#45;&gt;SectionChain1_2</title>
<path fill="none" stroke="#00ff00" d="M805.2974,-165.1225C769.3319,-149.8201 715.4813,-126.9082 676.7131,-110.4134"/>
<polygon fill="#00ff00" stroke="#00ff00" points="677.7739,-107.0611 667.2018,-106.3666 675.0333,-113.5023 677.7739,-107.0611"/>
</g>
<!-- SymbolChain2_1&#45;&gt;SymbolChain2_2 -->
<g id="edge18" class="edge">
<title>SymbolChain2_1&#45;&gt;SymbolChain2_2</title>
<path fill="none" stroke="#000000" d="M843.7351,-163.4038C843.7351,-150.499 843.7351,-132.8876 843.7351,-118.1501"/>
<polygon fill="#000000" stroke="#000000" points="847.2352,-118.0353 843.7351,-108.0353 840.2352,-118.0353 847.2352,-118.0353"/>
</g>
<!-- SymbolChain2_2&#45;&gt;SectionChain2_2 -->
<g id="edge16" class="edge">
<title>SymbolChain2_2&#45;&gt;SectionChain2_2</title>
<path fill="none" stroke="#00ff00" d="M797.6122,-74.5542C764.5667,-63.4878 719.8844,-48.5244 684.7813,-36.769"/>
<polygon fill="#00ff00" stroke="#00ff00" points="685.746,-33.401 675.1521,-33.5443 683.5231,-40.0387 685.746,-33.401"/>
</g>
<!-- HashTable -->
<g id="node13" class="node">
<title>HashTable</title>
<polygon fill="none" stroke="#a020f0" points="676.7351,-374.7767 676.7351,-410.7767 994.7351,-410.7767 994.7351,-374.7767 676.7351,-374.7767"/>
<text text-anchor="middle" x="723.2351" y="-389.0767" font-family="Times,serif" font-size="14.00" fill="#000000">HashTable</text>
<polyline fill="none" stroke="#a020f0" points="769.7351,-374.7767 769.7351,-410.7767 "/>
<text text-anchor="middle" x="807.2351" y="-389.0767" font-family="Times,serif" font-size="14.00" fill="#000000">bucket0</text>
<polyline fill="none" stroke="#a020f0" points="844.7351,-374.7767 844.7351,-410.7767 "/>
<text text-anchor="middle" x="882.2351" y="-389.0767" font-family="Times,serif" font-size="14.00" fill="#000000">bucket1</text>
<polyline fill="none" stroke="#a020f0" points="919.7351,-374.7767 919.7351,-410.7767 "/>
<text text-anchor="middle" x="957.2351" y="-389.0767" font-family="Times,serif" font-size="14.00" fill="#000000">bucket2</text>
</g>
<!-- HashTable&#45;&gt;SymbolChain1_1 -->
<g id="edge19" class="edge">
<title>HashTable:key0&#45;&gt;SymbolChain1_1</title>
<path fill="none" stroke="#a020f0" d="M806.7351,-374.7767C806.7351,-354.6179 796.7671,-334.3184 786.6611,-318.918"/>
<polygon fill="#a020f0" stroke="#a020f0" points="789.3552,-316.662 780.7691,-310.4547 783.6102,-320.6615 789.3552,-316.662"/>
</g>
<!-- HashTable&#45;&gt;SymbolChain2_1 -->
<g id="edge21" class="edge">
<title>HashTable:key1&#45;&gt;SymbolChain2_1</title>
<path fill="none" stroke="#a020f0" d="M882.7351,-374.7767C882.7351,-314.8503 864.5014,-246.5011 852.969,-209.2648"/>
<polygon fill="#a020f0" stroke="#a020f0" points="856.2705,-208.0969 849.9147,-199.6202 849.5972,-210.2103 856.2705,-208.0969"/>
</g>
</g>
</svg>
