<?xml version="1.0" encoding="UTF-8" standalone="no"?>
<!DOCTYPE svg PUBLIC "-//W3C//DTD SVG 1.1//EN"
 "http://www.w3.org/Graphics/SVG/1.1/DTD/svg11.dtd">
<!-- Generated by graphviz version 2.40.1 (20161225.0304)
 -->
<!-- Title: g Pages: 1 -->
<svg width="2019pt" height="332pt"
 viewBox="0.00 0.00 2019.26 332.00" xmlns="http://www.w3.org/2000/svg" xmlns:xlink="http://www.w3.org/1999/xlink">
<g id="graph0" class="graph" transform="scale(1 1) rotate(0) translate(4 328)">
<title>g</title>
<polygon fill="#ffffff" stroke="transparent" points="-4,4 -4,-328 2015.2626,-328 2015.2626,4 -4,4"/>
<!-- xre_search_2 -->
<g id="node1" class="node">
<title>xre_search_2</title>
<ellipse fill="none" stroke="#000000" cx="66.404" cy="-162" rx="57.4961" ry="18"/>
<text text-anchor="middle" x="66.404" y="-157.8" font-family="Times,serif" font-size="14.00" fill="#000000">xre_search_2</text>
</g>
<!-- xre_compile_fastmap -->
<g id="node2" class="node">
<title>xre_compile_fastmap</title>
<ellipse fill="none" stroke="#000000" cx="172.404" cy="-90" rx="86.9463" ry="18"/>
<text text-anchor="middle" x="172.404" y="-85.8" font-family="Times,serif" font-size="14.00" fill="#000000">xre_compile_fastmap</text>
</g>
<!-- xre_search_2&#45;&gt;xre_compile_fastmap -->
<g id="edge1" class="edge">
<title>xre_search_2&#45;&gt;xre_compile_fastmap</title>
<path fill="none" stroke="#000000" d="M90.4571,-145.6621C104.6818,-136 122.9194,-123.6122 138.5768,-112.977"/>
<polygon fill="#000000" stroke="#000000" points="140.6625,-115.7914 146.9681,-107.2773 136.7293,-110.0009 140.6625,-115.7914"/>
</g>
<!-- htab_clear_slot -->
<g id="node3" class="node">
<title>htab_clear_slot</title>
<ellipse fill="none" stroke="#000000" cx="1120.404" cy="-306" rx="64.2614" ry="18"/>
<text text-anchor="middle" x="1120.404" y="-301.8" font-family="Times,serif" font-size="14.00" fill="#000000">htab_clear_slot</text>
</g>
<!-- abort -->
<g id="node4" class="node">
<title>abort</title>
<ellipse fill="none" stroke="#000000" cx="1139.404" cy="-234" rx="28.0565" ry="18"/>
<text text-anchor="middle" x="1139.404" y="-229.8" font-family="Times,serif" font-size="14.00" fill="#000000">abort</text>
</g>
<!-- htab_clear_slot&#45;&gt;abort -->
<g id="edge2" class="edge">
<title>htab_clear_slot&#45;&gt;abort</title>
<path fill="none" stroke="#000000" d="M1125.1985,-287.8314C1127.2845,-279.9266 1129.7755,-270.4872 1132.0847,-261.7365"/>
<polygon fill="#000000" stroke="#000000" points="1135.5094,-262.4755 1134.6769,-251.9134 1128.7411,-260.6894 1135.5094,-262.4755"/>
</g>
<!-- htab_create_alloc -->
<g id="node5" class="node">
<title>htab_create_alloc</title>
<ellipse fill="none" stroke="#000000" cx="1400.404" cy="-306" rx="72.429" ry="18"/>
<text text-anchor="middle" x="1400.404" y="-301.8" font-family="Times,serif" font-size="14.00" fill="#000000">htab_create_alloc</text>
</g>
<!-- htab_create_typed_alloc -->
<g id="node6" class="node">
<title>htab_create_typed_alloc</title>
<ellipse fill="none" stroke="#000000" cx="1400.404" cy="-234" rx="96.5671" ry="18"/>
<text text-anchor="middle" x="1400.404" y="-229.8" font-family="Times,serif" font-size="14.00" fill="#000000">htab_create_typed_alloc</text>
</g>
<!-- htab_create_alloc&#45;&gt;htab_create_typed_alloc -->
<g id="edge3" class="edge">
<title>htab_create_alloc&#45;&gt;htab_create_typed_alloc</title>
<path fill="none" stroke="#000000" d="M1400.404,-287.8314C1400.404,-280.131 1400.404,-270.9743 1400.404,-262.4166"/>
<polygon fill="#000000" stroke="#000000" points="1403.9041,-262.4132 1400.404,-252.4133 1396.9041,-262.4133 1403.9041,-262.4132"/>
</g>
<!-- xregexec -->
<g id="node7" class="node">
<title>xregexec</title>
<ellipse fill="none" stroke="#000000" cx="180.404" cy="-306" rx="42.0351" ry="18"/>
<text text-anchor="middle" x="180.404" y="-301.8" font-family="Times,serif" font-size="14.00" fill="#000000">xregexec</text>
</g>
<!-- malloc -->
<g id="node8" class="node">
<title>malloc</title>
<ellipse fill="none" stroke="#000000" cx="632.404" cy="-162" rx="34.344" ry="18"/>
<text text-anchor="middle" x="632.404" y="-157.8" font-family="Times,serif" font-size="14.00" fill="#000000">malloc</text>
</g>
<!-- xregexec&#45;&gt;malloc -->
<g id="edge4" class="edge">
<title>xregexec&#45;&gt;malloc</title>
<path fill="none" stroke="#000000" d="M212.7073,-294.3624C218.8972,-292.1995 225.3387,-289.9945 231.404,-288 283.4909,-270.8716 302.0195,-279.5884 349.404,-252 369.5091,-240.2944 366.8515,-226.9008 387.404,-216 452.0212,-181.7281 537.2889,-169.1828 588.3093,-164.6073"/>
<polygon fill="#000000" stroke="#000000" points="588.6738,-168.0891 598.3486,-163.7706 588.0924,-161.1133 588.6738,-168.0891"/>
</g>
<!-- xre_search -->
<g id="node9" class="node">
<title>xre_search</title>
<ellipse fill="none" stroke="#000000" cx="48.404" cy="-234" rx="48.3083" ry="18"/>
<text text-anchor="middle" x="48.404" y="-229.8" font-family="Times,serif" font-size="14.00" fill="#000000">xre_search</text>
</g>
<!-- xregexec&#45;&gt;xre_search -->
<g id="edge5" class="edge">
<title>xregexec&#45;&gt;xre_search</title>
<path fill="none" stroke="#000000" d="M154.3251,-291.7751C134.4708,-280.9455 106.8961,-265.9048 84.8589,-253.8845"/>
<polygon fill="#000000" stroke="#000000" points="86.247,-250.6549 75.7921,-248.9389 82.895,-256.8001 86.247,-250.6549"/>
</g>
<!-- free -->
<g id="node10" class="node">
<title>free</title>
<ellipse fill="none" stroke="#000000" cx="204.404" cy="-162" rx="27" ry="18"/>
<text text-anchor="middle" x="204.404" y="-157.8" font-family="Times,serif" font-size="14.00" fill="#000000">free</text>
</g>
<!-- xregexec&#45;&gt;free -->
<g id="edge6" class="edge">
<title>xregexec&#45;&gt;free</title>
<path fill="none" stroke="#000000" d="M190.1333,-288.0882C195.1538,-277.8433 200.7667,-264.5656 203.404,-252 207.677,-231.6415 207.7763,-208.1188 206.8873,-190.2282"/>
<polygon fill="#000000" stroke="#000000" points="210.3746,-189.9147 206.2542,-180.154 203.3884,-190.3538 210.3746,-189.9147"/>
</g>
<!-- __stack_chk_fail -->
<g id="node11" class="node">
<title>__stack_chk_fail</title>
<ellipse fill="none" stroke="#000000" cx="467.404" cy="-234" rx="70.534" ry="18"/>
<text text-anchor="middle" x="467.404" y="-229.8" font-family="Times,serif" font-size="14.00" fill="#000000">__stack_chk_fail</text>
</g>
<!-- xregexec&#45;&gt;__stack_chk_fail -->
<g id="edge7" class="edge">
<title>xregexec&#45;&gt;__stack_chk_fail</title>
<path fill="none" stroke="#000000" d="M212.3254,-294.1052C218.6082,-291.9426 225.1814,-289.8036 231.404,-288 263.1738,-278.7916 345.0876,-260.4939 403.4769,-247.7644"/>
<polygon fill="#000000" stroke="#000000" points="404.3329,-251.1601 413.3601,-245.6138 402.8445,-244.3201 404.3329,-251.1601"/>
</g>
<!-- xre_search&#45;&gt;xre_search_2 -->
<g id="edge26" class="edge">
<title>xre_search&#45;&gt;xre_search_2</title>
<path fill="none" stroke="#000000" d="M52.9462,-215.8314C54.8925,-208.0463 57.2108,-198.7729 59.3704,-190.1347"/>
<polygon fill="#000000" stroke="#000000" points="62.7708,-190.9636 61.8007,-180.4133 55.9798,-189.2658 62.7708,-190.9636"/>
</g>
<!-- xexit -->
<g id="node12" class="node">
<title>xexit</title>
<ellipse fill="none" stroke="#000000" cx="669.404" cy="-90" rx="27.5804" ry="18"/>
<text text-anchor="middle" x="669.404" y="-85.8" font-family="Times,serif" font-size="14.00" fill="#000000">xexit</text>
</g>
<!-- exit -->
<g id="node13" class="node">
<title>exit</title>
<ellipse fill="none" stroke="#000000" cx="669.404" cy="-18" rx="27" ry="18"/>
<text text-anchor="middle" x="669.404" y="-13.8" font-family="Times,serif" font-size="14.00" fill="#000000">exit</text>
</g>
<!-- xexit&#45;&gt;exit -->
<g id="edge8" class="edge">
<title>xexit&#45;&gt;exit</title>
<path fill="none" stroke="#000000" d="M669.404,-71.8314C669.404,-64.131 669.404,-54.9743 669.404,-46.4166"/>
<polygon fill="#000000" stroke="#000000" points="672.9041,-46.4132 669.404,-36.4133 665.9041,-46.4133 672.9041,-46.4132"/>
</g>
<!-- xregcomp -->
<g id="node14" class="node">
<title>xregcomp</title>
<ellipse fill="none" stroke="#000000" cx="295.404" cy="-234" rx="45.4355" ry="18"/>
<text text-anchor="middle" x="295.404" y="-229.8" font-family="Times,serif" font-size="14.00" fill="#000000">xregcomp</text>
</g>
<!-- xregcomp&#45;&gt;xre_compile_fastmap -->
<g id="edge11" class="edge">
<title>xregcomp&#45;&gt;xre_compile_fastmap</title>
<path fill="none" stroke="#000000" d="M286.9078,-216.2C277.2752,-197.1052 260.2985,-166.4962 240.404,-144 230.5195,-132.8228 218.1135,-122.2165 206.6134,-113.4104"/>
<polygon fill="#000000" stroke="#000000" points="208.5604,-110.4965 198.4486,-107.3339 204.3812,-116.112 208.5604,-110.4965"/>
</g>
<!-- xregcomp&#45;&gt;malloc -->
<g id="edge9" class="edge">
<title>xregcomp&#45;&gt;malloc</title>
<path fill="none" stroke="#000000" d="M326.9787,-221.046C333.052,-219.245 339.3767,-217.5005 345.404,-216 430.7413,-194.7557 532.5428,-176.8364 589.2111,-167.9668"/>
<polygon fill="#000000" stroke="#000000" points="589.9037,-171.4014 599.253,-166.4172 588.8361,-164.4833 589.9037,-171.4014"/>
</g>
<!-- xregcomp&#45;&gt;malloc -->
<g id="edge10" class="edge">
<title>xregcomp&#45;&gt;malloc</title>
<path fill="none" stroke="#000000" d="M333.8324,-224.2336C343.5346,-221.3742 353.8434,-218.3801 363.404,-216 442.7962,-196.2357 536.4385,-179.3493 589.7874,-169.9503"/>
<polygon fill="#000000" stroke="#000000" points="590.661,-173.3505 599.9038,-168.1718 589.4488,-166.4563 590.661,-173.3505"/>
</g>
<!-- xregcomp&#45;&gt;free -->
<g id="edge12" class="edge">
<title>xregcomp&#45;&gt;free</title>
<path fill="none" stroke="#000000" d="M274.7547,-217.6621C261.4286,-207.1184 244.0001,-193.3287 229.8243,-182.1128"/>
<polygon fill="#000000" stroke="#000000" points="231.9233,-179.3104 221.9093,-175.8504 227.5799,-184.8 231.9233,-179.3104"/>
</g>
<!-- xrealloc -->
<g id="node15" class="node">
<title>xrealloc</title>
<ellipse fill="none" stroke="#000000" cx="836.404" cy="-234" rx="38.6695" ry="18"/>
<text text-anchor="middle" x="836.404" y="-229.8" font-family="Times,serif" font-size="14.00" fill="#000000">xrealloc</text>
</g>
<!-- xrealloc&#45;&gt;malloc -->
<g id="edge13" class="edge">
<title>xrealloc&#45;&gt;malloc</title>
<path fill="none" stroke="#000000" d="M806.6669,-222.3032C800.9595,-220.1458 795.0138,-217.958 789.404,-216 739.2389,-198.4907 725.2945,-198.2771 675.404,-180 673.1599,-179.1779 670.8614,-178.3059 668.5508,-177.4065"/>
<polygon fill="#000000" stroke="#000000" points="669.6772,-174.0873 659.093,-173.6124 667.0709,-180.5841 669.6772,-174.0873"/>
</g>
<!-- realloc -->
<g id="node16" class="node">
<title>realloc</title>
<ellipse fill="none" stroke="#000000" cx="1102.404" cy="-162" rx="34.3267" ry="18"/>
<text text-anchor="middle" x="1102.404" y="-157.8" font-family="Times,serif" font-size="14.00" fill="#000000">realloc</text>
</g>
<!-- xrealloc&#45;&gt;realloc -->
<g id="edge14" class="edge">
<title>xrealloc&#45;&gt;realloc</title>
<path fill="none" stroke="#000000" d="M872.4262,-227.1164C916.9257,-218.1944 994.6817,-201.2338 1059.404,-180 1061.8263,-179.2053 1064.3035,-178.3337 1066.7854,-177.416"/>
<polygon fill="#000000" stroke="#000000" points="1068.231,-180.6091 1076.2755,-173.7143 1065.6872,-174.0876 1068.231,-180.6091"/>
</g>
<!-- xmalloc_failed -->
<g id="node17" class="node">
<title>xmalloc_failed</title>
<ellipse fill="none" stroke="#000000" cx="747.404" cy="-162" rx="63.2924" ry="18"/>
<text text-anchor="middle" x="747.404" y="-157.8" font-family="Times,serif" font-size="14.00" fill="#000000">xmalloc_failed</text>
</g>
<!-- xrealloc&#45;&gt;xmalloc_failed -->
<g id="edge15" class="edge">
<title>xrealloc&#45;&gt;xmalloc_failed</title>
<path fill="none" stroke="#000000" d="M817.0924,-218.3771C805.2379,-208.787 789.8276,-196.3202 776.5136,-185.5493"/>
<polygon fill="#000000" stroke="#000000" points="778.521,-182.6714 768.5452,-179.1029 774.1183,-188.1135 778.521,-182.6714"/>
</g>
<!-- xmalloc_failed&#45;&gt;xexit -->
<g id="edge35" class="edge">
<title>xmalloc_failed&#45;&gt;xexit</title>
<path fill="none" stroke="#000000" d="M728.5224,-144.5708C717.8256,-134.6969 704.3483,-122.2562 692.9641,-111.7477"/>
<polygon fill="#000000" stroke="#000000" points="695.1991,-109.0476 685.477,-104.8366 690.4511,-114.1913 695.1991,-109.0476"/>
</g>
<!-- sbrk -->
<g id="node26" class="node">
<title>sbrk</title>
<ellipse fill="none" stroke="#000000" cx="825.404" cy="-90" rx="27" ry="18"/>
<text text-anchor="middle" x="825.404" y="-85.8" font-family="Times,serif" font-size="14.00" fill="#000000">sbrk</text>
</g>
<!-- xmalloc_failed&#45;&gt;sbrk -->
<g id="edge32" class="edge">
<title>xmalloc_failed&#45;&gt;sbrk</title>
<path fill="none" stroke="#000000" d="M760.7692,-144.2022C771.1122,-133.6809 785.5056,-120.3445 798.1641,-109.5335"/>
<polygon fill="#000000" stroke="#000000" points="800.7382,-111.9441 806.172,-102.8488 796.2523,-106.5703 800.7382,-111.9441"/>
</g>
<!-- xmalloc_failed&#45;&gt;sbrk -->
<g id="edge33" class="edge">
<title>xmalloc_failed&#45;&gt;sbrk</title>
<path fill="none" stroke="#000000" d="M771.2956,-145.3008C782.4567,-135.9408 795.4712,-124.1095 806.0193,-113.7945"/>
<polygon fill="#000000" stroke="#000000" points="808.6079,-116.1556 813.2022,-106.6087 803.6572,-111.2068 808.6079,-116.1556"/>
</g>
<!-- fprintf -->
<g id="node33" class="node">
<title>fprintf</title>
<ellipse fill="none" stroke="#000000" cx="747.404" cy="-90" rx="32.8994" ry="18"/>
<text text-anchor="middle" x="747.404" y="-85.8" font-family="Times,serif" font-size="14.00" fill="#000000">fprintf</text>
</g>
<!-- xmalloc_failed&#45;&gt;fprintf -->
<g id="edge34" class="edge">
<title>xmalloc_failed&#45;&gt;fprintf</title>
<path fill="none" stroke="#000000" d="M747.404,-143.8314C747.404,-136.131 747.404,-126.9743 747.404,-118.4166"/>
<polygon fill="#000000" stroke="#000000" points="750.9041,-118.4132 747.404,-108.4133 743.9041,-118.4133 750.9041,-118.4132"/>
</g>
<!-- xregerror -->
<g id="node18" class="node">
<title>xregerror</title>
<ellipse fill="none" stroke="#000000" cx="1245.404" cy="-306" rx="43.0042" ry="18"/>
<text text-anchor="middle" x="1245.404" y="-301.8" font-family="Times,serif" font-size="14.00" fill="#000000">xregerror</text>
</g>
<!-- xregerror&#45;&gt;abort -->
<g id="edge16" class="edge">
<title>xregerror&#45;&gt;abort</title>
<path fill="none" stroke="#000000" d="M1222.6644,-290.5542C1206.5019,-279.5759 1184.6933,-264.7625 1167.4505,-253.0504"/>
<polygon fill="#000000" stroke="#000000" points="1169.1427,-249.9688 1158.9039,-247.2452 1165.2095,-255.7594 1169.1427,-249.9688"/>
</g>
<!-- memcpy -->
<g id="node19" class="node">
<title>memcpy</title>
<ellipse fill="none" stroke="#000000" cx="1245.404" cy="-234" rx="40.6162" ry="18"/>
<text text-anchor="middle" x="1245.404" y="-229.8" font-family="Times,serif" font-size="14.00" fill="#000000">memcpy</text>
</g>
<!-- xregerror&#45;&gt;memcpy -->
<g id="edge17" class="edge">
<title>xregerror&#45;&gt;memcpy</title>
<path fill="none" stroke="#000000" d="M1239.4516,-287.8314C1238.6897,-280.0125 1238.4736,-270.6923 1238.8036,-262.0221"/>
<polygon fill="#000000" stroke="#000000" points="1242.3045,-262.1239 1239.4768,-251.9134 1235.3199,-261.6587 1242.3045,-262.1239"/>
</g>
<!-- xregerror&#45;&gt;memcpy -->
<g id="edge18" class="edge">
<title>xregerror&#45;&gt;memcpy</title>
<path fill="none" stroke="#000000" d="M1251.3564,-287.8314C1252.1184,-280.0125 1252.3344,-270.6923 1252.0045,-262.0221"/>
<polygon fill="#000000" stroke="#000000" points="1255.4882,-261.6587 1251.3313,-251.9134 1248.5036,-262.1239 1255.4882,-261.6587"/>
</g>
<!-- xcalloc -->
<g id="node20" class="node">
<title>xcalloc</title>
<ellipse fill="none" stroke="#000000" cx="1057.404" cy="-234" rx="35.78" ry="18"/>
<text text-anchor="middle" x="1057.404" y="-229.8" font-family="Times,serif" font-size="14.00" fill="#000000">xcalloc</text>
</g>
<!-- xcalloc&#45;&gt;xmalloc_failed -->
<g id="edge20" class="edge">
<title>xcalloc&#45;&gt;xmalloc_failed</title>
<path fill="none" stroke="#000000" d="M1024.6283,-226.8013C978.6869,-216.6569 892.5597,-197.4414 819.404,-180 814.516,-178.8346 809.4463,-177.6066 804.3637,-176.362"/>
<polygon fill="#000000" stroke="#000000" points="805.165,-172.9548 794.6179,-173.9603 803.49,-179.7515 805.165,-172.9548"/>
</g>
<!-- calloc -->
<g id="node21" class="node">
<title>calloc</title>
<ellipse fill="none" stroke="#000000" cx="1185.404" cy="-162" rx="31.4375" ry="18"/>
<text text-anchor="middle" x="1185.404" y="-157.8" font-family="Times,serif" font-size="14.00" fill="#000000">calloc</text>
</g>
<!-- xcalloc&#45;&gt;calloc -->
<g id="edge19" class="edge">
<title>xcalloc&#45;&gt;calloc</title>
<path fill="none" stroke="#000000" d="M1081.4799,-220.4574C1101.975,-208.9288 1131.5649,-192.2845 1153.9335,-179.7022"/>
<polygon fill="#000000" stroke="#000000" points="1155.7254,-182.71 1162.7252,-174.7568 1152.2935,-176.609 1155.7254,-182.71"/>
</g>
<!-- concat -->
<g id="node22" class="node">
<title>concat</title>
<ellipse fill="none" stroke="#000000" cx="773.404" cy="-306" rx="33.3665" ry="18"/>
<text text-anchor="middle" x="773.404" y="-301.8" font-family="Times,serif" font-size="14.00" fill="#000000">concat</text>
</g>
<!-- concat&#45;&gt;__stack_chk_fail -->
<g id="edge22" class="edge">
<title>concat&#45;&gt;__stack_chk_fail</title>
<path fill="none" stroke="#000000" d="M747.9502,-294.1147C742.5622,-291.8764 736.8551,-289.7061 731.404,-288 667.5452,-268.0131 592.6328,-253.5033 538.953,-244.5896"/>
<polygon fill="#000000" stroke="#000000" points="539.2814,-241.0968 528.8474,-242.9359 538.1509,-248.005 539.2814,-241.0968"/>
</g>
<!-- xmalloc -->
<g id="node23" class="node">
<title>xmalloc</title>
<ellipse fill="none" stroke="#000000" cx="741.404" cy="-234" rx="38.6869" ry="18"/>
<text text-anchor="middle" x="741.404" y="-229.8" font-family="Times,serif" font-size="14.00" fill="#000000">xmalloc</text>
</g>
<!-- concat&#45;&gt;xmalloc -->
<g id="edge21" class="edge">
<title>concat&#45;&gt;xmalloc</title>
<path fill="none" stroke="#000000" d="M765.4939,-288.2022C761.8785,-280.0675 757.5152,-270.2501 753.501,-261.2181"/>
<polygon fill="#000000" stroke="#000000" points="756.5938,-259.5592 749.3341,-251.8425 750.1972,-262.4022 756.5938,-259.5592"/>
</g>
<!-- xmalloc&#45;&gt;malloc -->
<g id="edge28" class="edge">
<title>xmalloc&#45;&gt;malloc</title>
<path fill="none" stroke="#000000" d="M719.0832,-219.256C702.7045,-208.437 680.2847,-193.6276 662.35,-181.7808"/>
<polygon fill="#000000" stroke="#000000" points="664.2252,-178.8249 653.9522,-176.2336 660.3671,-184.6657 664.2252,-178.8249"/>
</g>
<!-- xmalloc&#45;&gt;xmalloc_failed -->
<g id="edge29" class="edge">
<title>xmalloc&#45;&gt;xmalloc_failed</title>
<path fill="none" stroke="#000000" d="M742.9181,-215.8314C743.5598,-208.131 744.3228,-198.9743 745.036,-190.4166"/>
<polygon fill="#000000" stroke="#000000" points="748.527,-190.6694 745.8696,-180.4133 741.5511,-190.088 748.527,-190.6694"/>
</g>
<!-- concat_copy -->
<g id="node24" class="node">
<title>concat_copy</title>
<ellipse fill="none" stroke="#000000" cx="569.404" cy="-306" rx="54.5904" ry="18"/>
<text text-anchor="middle" x="569.404" y="-301.8" font-family="Times,serif" font-size="14.00" fill="#000000">concat_copy</text>
</g>
<!-- concat_copy&#45;&gt;__stack_chk_fail -->
<g id="edge23" class="edge">
<title>concat_copy&#45;&gt;__stack_chk_fail</title>
<path fill="none" stroke="#000000" d="M546.2587,-289.6621C532.5992,-280.0201 515.0943,-267.6637 500.0488,-257.0434"/>
<polygon fill="#000000" stroke="#000000" points="501.7102,-253.932 491.5221,-251.0245 497.6734,-259.6508 501.7102,-253.932"/>
</g>
<!-- xmalloc_set_program_name -->
<g id="node25" class="node">
<title>xmalloc_set_program_name</title>
<ellipse fill="none" stroke="#000000" cx="939.404" cy="-162" rx="110.5842" ry="18"/>
<text text-anchor="middle" x="939.404" y="-157.8" font-family="Times,serif" font-size="14.00" fill="#000000">xmalloc_set_program_name</text>
</g>
<!-- xmalloc_set_program_name&#45;&gt;sbrk -->
<g id="edge24" class="edge">
<title>xmalloc_set_program_name&#45;&gt;sbrk</title>
<path fill="none" stroke="#000000" d="M911.5165,-144.3868C894.0032,-133.3258 871.4776,-119.0991 853.8577,-107.9708"/>
<polygon fill="#000000" stroke="#000000" points="855.4673,-104.8477 845.1434,-102.4669 851.7293,-110.7661 855.4673,-104.8477"/>
</g>
<!-- htab_remove_elt_with_hash -->
<g id="node27" class="node">
<title>htab_remove_elt_with_hash</title>
<ellipse fill="none" stroke="#000000" cx="1616.404" cy="-306" rx="110.1169" ry="18"/>
<text text-anchor="middle" x="1616.404" y="-301.8" font-family="Times,serif" font-size="14.00" fill="#000000">htab_remove_elt_with_hash</text>
</g>
<!-- htab_find_slot_with_hash -->
<g id="node28" class="node">
<title>htab_find_slot_with_hash</title>
<ellipse fill="none" stroke="#000000" cx="1616.404" cy="-234" rx="101.4815" ry="18"/>
<text text-anchor="middle" x="1616.404" y="-229.8" font-family="Times,serif" font-size="14.00" fill="#000000">htab_find_slot_with_hash</text>
</g>
<!-- htab_remove_elt_with_hash&#45;&gt;htab_find_slot_with_hash -->
<g id="edge25" class="edge">
<title>htab_remove_elt_with_hash&#45;&gt;htab_find_slot_with_hash</title>
<path fill="none" stroke="#000000" d="M1616.404,-287.8314C1616.404,-280.131 1616.404,-270.9743 1616.404,-262.4166"/>
<polygon fill="#000000" stroke="#000000" points="1619.9041,-262.4132 1616.404,-252.4133 1612.9041,-262.4133 1619.9041,-262.4132"/>
</g>
<!-- gcc_c_fe_context -->
<g id="node29" class="node">
<title>gcc_c_fe_context</title>
<ellipse fill="none" stroke="#000000" cx="1817.404" cy="-306" rx="72.4376" ry="18"/>
<text text-anchor="middle" x="1817.404" y="-301.8" font-family="Times,serif" font-size="14.00" fill="#000000">gcc_c_fe_context</text>
</g>
<!-- _Znwm -->
<g id="node30" class="node">
<title>_Znwm</title>
<ellipse fill="none" stroke="#000000" cx="1817.404" cy="-234" rx="37.7352" ry="18"/>
<text text-anchor="middle" x="1817.404" y="-229.8" font-family="Times,serif" font-size="14.00" fill="#000000">_Znwm</text>
</g>
<!-- gcc_c_fe_context&#45;&gt;_Znwm -->
<g id="edge27" class="edge">
<title>gcc_c_fe_context&#45;&gt;_Znwm</title>
<path fill="none" stroke="#000000" d="M1817.404,-287.8314C1817.404,-280.131 1817.404,-270.9743 1817.404,-262.4166"/>
<polygon fill="#000000" stroke="#000000" points="1820.9041,-262.4132 1817.404,-252.4133 1813.9041,-262.4133 1820.9041,-262.4132"/>
</g>
<!-- concat_length -->
<g id="node31" class="node">
<title>concat_length</title>
<ellipse fill="none" stroke="#000000" cx="300.404" cy="-306" rx="59.9184" ry="18"/>
<text text-anchor="middle" x="300.404" y="-301.8" font-family="Times,serif" font-size="14.00" fill="#000000">concat_length</text>
</g>
<!-- concat_length&#45;&gt;__stack_chk_fail -->
<g id="edge30" class="edge">
<title>concat_length&#45;&gt;__stack_chk_fail</title>
<path fill="none" stroke="#000000" d="M335.0065,-291.0816C360.2177,-280.2121 394.6112,-265.3837 422.0247,-253.5647"/>
<polygon fill="#000000" stroke="#000000" points="423.6064,-256.6943 431.4036,-249.5211 420.835,-250.2663 423.6064,-256.6943"/>
</g>
<!-- xre_exec -->
<g id="node32" class="node">
<title>xre_exec</title>
<ellipse fill="none" stroke="#000000" cx="48.404" cy="-306" rx="42.0351" ry="18"/>
<text text-anchor="middle" x="48.404" y="-301.8" font-family="Times,serif" font-size="14.00" fill="#000000">xre_exec</text>
</g>
<!-- xre_exec&#45;&gt;xre_search -->
<g id="edge31" class="edge">
<title>xre_exec&#45;&gt;xre_search</title>
<path fill="none" stroke="#000000" d="M48.404,-287.8314C48.404,-280.131 48.404,-270.9743 48.404,-262.4166"/>
<polygon fill="#000000" stroke="#000000" points="51.9041,-262.4132 48.404,-252.4133 44.9041,-262.4133 51.9041,-262.4132"/>
</g>
<!-- concat_copy2 -->
<g id="node34" class="node">
<title>concat_copy2</title>
<ellipse fill="none" stroke="#000000" cx="437.404" cy="-306" rx="59.4339" ry="18"/>
<text text-anchor="middle" x="437.404" y="-301.8" font-family="Times,serif" font-size="14.00" fill="#000000">concat_copy2</text>
</g>
<!-- concat_copy2&#45;&gt;__stack_chk_fail -->
<g id="edge36" class="edge">
<title>concat_copy2&#45;&gt;__stack_chk_fail</title>
<path fill="none" stroke="#000000" d="M444.9743,-287.8314C448.3396,-279.7547 452.3723,-270.0761 456.0845,-261.1668"/>
<polygon fill="#000000" stroke="#000000" points="459.3247,-262.4904 459.9401,-251.9134 452.8631,-259.798 459.3247,-262.4904"/>
</g>
<!-- xre_comp -->
<g id="node35" class="node">
<title>xre_comp</title>
<ellipse fill="none" stroke="#000000" cx="639.404" cy="-234" rx="45.4355" ry="18"/>
<text text-anchor="middle" x="639.404" y="-229.8" font-family="Times,serif" font-size="14.00" fill="#000000">xre_comp</text>
</g>
<!-- xre_comp&#45;&gt;malloc -->
<g id="edge37" class="edge">
<title>xre_comp&#45;&gt;malloc</title>
<path fill="none" stroke="#000000" d="M631.758,-216.2022C630.2143,-208.3864 629.0719,-199.0171 628.5436,-190.2836"/>
<polygon fill="#000000" stroke="#000000" points="632.0356,-189.9762 628.2181,-180.0931 625.0392,-190.1998 632.0356,-189.9762"/>
</g>
<!-- xre_comp&#45;&gt;malloc -->
<g id="edge38" class="edge">
<title>xre_comp&#45;&gt;malloc</title>
<path fill="none" stroke="#000000" d="M643.59,-215.8314C643.5918,-208.0125 642.9017,-198.6923 641.7289,-190.0221"/>
<polygon fill="#000000" stroke="#000000" points="645.1436,-189.216 640.0729,-179.9134 638.2356,-190.3477 645.1436,-189.216"/>
</g>
<!-- xregfree -->
<g id="node36" class="node">
<title>xregfree</title>
<ellipse fill="none" stroke="#000000" cx="154.404" cy="-234" rx="39.6212" ry="18"/>
<text text-anchor="middle" x="154.404" y="-229.8" font-family="Times,serif" font-size="14.00" fill="#000000">xregfree</text>
</g>
<!-- xregfree&#45;&gt;free -->
<g id="edge39" class="edge">
<title>xregfree&#45;&gt;free</title>
<path fill="none" stroke="#000000" d="M155.1164,-215.8314C160.224,-205.6067 168.9817,-192.8146 178.0486,-182.2662"/>
<polygon fill="#000000" stroke="#000000" points="180.7971,-184.4479 184.987,-174.7168 175.6431,-179.7111 180.7971,-184.4479"/>
</g>
<!-- xregfree&#45;&gt;free -->
<g id="edge40" class="edge">
<title>xregfree&#45;&gt;free</title>
<path fill="none" stroke="#000000" d="M166.5076,-216.5708C172.6149,-207.7763 180.1362,-196.9457 186.864,-187.2577"/>
<polygon fill="#000000" stroke="#000000" points="189.927,-188.983 192.7562,-178.7729 184.1774,-184.9902 189.927,-188.983"/>
</g>
<!-- xregfree&#45;&gt;free -->
<g id="edge41" class="edge">
<title>xregfree&#45;&gt;free</title>
<path fill="none" stroke="#000000" d="M176.2797,-218.7307C184.4,-210.0711 192.7122,-198.9838 198.8253,-188.912"/>
<polygon fill="#000000" stroke="#000000" points="201.9538,-190.4877 203.7525,-180.0467 195.8352,-187.0871 201.9538,-190.4877"/>
</g>
<!-- reconcat -->
<g id="node37" class="node">
<title>reconcat</title>
<ellipse fill="none" stroke="#000000" cx="682.404" cy="-306" rx="40.1057" ry="18"/>
<text text-anchor="middle" x="682.404" y="-301.8" font-family="Times,serif" font-size="14.00" fill="#000000">reconcat</text>
</g>
<!-- reconcat&#45;&gt;free -->
<g id="edge43" class="edge">
<title>reconcat&#45;&gt;free</title>
<path fill="none" stroke="#000000" d="M654.5304,-292.8341C634.5131,-282.8287 607.3123,-268.0804 585.404,-252 566.6493,-238.2342 568.2784,-226.2712 547.404,-216 494.0014,-189.7234 318.9099,-171.8551 241.6284,-165.0574"/>
<polygon fill="#000000" stroke="#000000" points="241.6601,-161.5472 231.3956,-164.172 241.0566,-168.5211 241.6601,-161.5472"/>
</g>
<!-- reconcat&#45;&gt;__stack_chk_fail -->
<g id="edge44" class="edge">
<title>reconcat&#45;&gt;__stack_chk_fail</title>
<path fill="none" stroke="#000000" d="M651.3613,-294.3972C645.4147,-292.2311 639.2276,-290.0161 633.404,-288 596.2904,-275.1517 554.2127,-261.4734 521.7076,-251.098"/>
<polygon fill="#000000" stroke="#000000" points="522.5338,-247.688 511.9432,-247.9887 520.4098,-254.358 522.5338,-247.688"/>
</g>
<!-- reconcat&#45;&gt;xmalloc -->
<g id="edge42" class="edge">
<title>reconcat&#45;&gt;xmalloc</title>
<path fill="none" stroke="#000000" d="M696.3862,-288.937C703.7339,-279.9703 712.8772,-268.8124 721.0004,-258.8993"/>
<polygon fill="#000000" stroke="#000000" points="723.8911,-260.8937 727.5222,-250.9405 718.4768,-256.4569 723.8911,-260.8937"/>
</g>
<!-- htab_empty -->
<g id="node38" class="node">
<title>htab_empty</title>
<ellipse fill="none" stroke="#000000" cx="1959.404" cy="-306" rx="51.7174" ry="18"/>
<text text-anchor="middle" x="1959.404" y="-301.8" font-family="Times,serif" font-size="14.00" fill="#000000">htab_empty</text>
</g>
<!-- memset -->
<g id="node39" class="node">
<title>memset</title>
<ellipse fill="none" stroke="#000000" cx="1959.404" cy="-234" rx="37.7266" ry="18"/>
<text text-anchor="middle" x="1959.404" y="-229.8" font-family="Times,serif" font-size="14.00" fill="#000000">memset</text>
</g>
<!-- htab_empty&#45;&gt;memset -->
<g id="edge45" class="edge">
<title>htab_empty&#45;&gt;memset</title>
<path fill="none" stroke="#000000" d="M1959.404,-287.8314C1959.404,-280.131 1959.404,-270.9743 1959.404,-262.4166"/>
<polygon fill="#000000" stroke="#000000" points="1962.9041,-262.4132 1959.404,-252.4133 1955.9041,-262.4133 1962.9041,-262.4132"/>
</g>
</g>
</svg>
