<?xml version="1.0" encoding="UTF-8" standalone="no"?>
<!DOCTYPE svg PUBLIC "-//W3C//DTD SVG 1.1//EN"
 "http://www.w3.org/Graphics/SVG/1.1/DTD/svg11.dtd">
<!-- Generated by graphviz version 2.40.1 (20161225.0304)
 -->
<!-- Title: g Pages: 1 -->
<svg width="107pt" height="188pt"
 viewBox="0.00 0.00 107.36 188.00" xmlns="http://www.w3.org/2000/svg" xmlns:xlink="http://www.w3.org/1999/xlink">
<g id="graph0" class="graph" transform="scale(1 1) rotate(0) translate(4 184)">
<title>g</title>
<polygon fill="#ffffff" stroke="transparent" points="-4,4 -4,-184 103.3604,-184 103.3604,4 -4,4"/>
<!-- sh1_f0 -->
<g id="node1" class="node">
<title>sh1_f0</title>
<ellipse fill="none" stroke="#000000" cx="34.1802" cy="-90" rx="34.3614" ry="18"/>
<text text-anchor="middle" x="34.1802" y="-85.8" font-family="Times,serif" font-size="14.00" fill="#000000">sh1_f0</text>
</g>
<!-- puts -->
<g id="node2" class="node">
<title>puts</title>
<ellipse fill="none" stroke="#000000" cx="65.1802" cy="-18" rx="27" ry="18"/>
<text text-anchor="middle" x="65.1802" y="-13.8" font-family="Times,serif" font-size="14.00" fill="#000000">puts</text>
</g>
<!-- sh1_f0&#45;&gt;puts -->
<g id="edge1" class="edge">
<title>sh1_f0&#45;&gt;puts</title>
<path fill="none" stroke="#000000" d="M41.8431,-72.2022C45.3983,-63.9452 49.6998,-53.9545 53.6365,-44.8112"/>
<polygon fill="#000000" stroke="#000000" points="56.9725,-45.9136 57.7124,-35.3446 50.5431,-43.1453 56.9725,-45.9136"/>
</g>
<!-- sh1_f1 -->
<g id="node3" class="node">
<title>sh1_f1</title>
<ellipse fill="none" stroke="#000000" cx="65.1802" cy="-162" rx="34.3614" ry="18"/>
<text text-anchor="middle" x="65.1802" y="-157.8" font-family="Times,serif" font-size="14.00" fill="#000000">sh1_f1</text>
</g>
<!-- sh1_f1&#45;&gt;sh1_f0 -->
<g id="edge2" class="edge">
<title>sh1_f1&#45;&gt;sh1_f0</title>
<path fill="none" stroke="#000000" d="M57.5173,-144.2022C53.9885,-136.0064 49.7243,-126.1024 45.8115,-117.0145"/>
<polygon fill="#000000" stroke="#000000" points="48.9243,-115.3938 41.755,-107.593 42.4949,-118.162 48.9243,-115.3938"/>
</g>
<!-- sh1_f1&#45;&gt;puts -->
<g id="edge3" class="edge">
<title>sh1_f1&#45;&gt;puts</title>
<path fill="none" stroke="#000000" d="M70.1742,-144.1645C72.8389,-133.7193 75.8389,-120.2193 77.1802,-108 78.9261,-92.0955 78.9261,-87.9045 77.1802,-72 76.2371,-63.4083 74.4739,-54.1834 72.5839,-45.8325"/>
<polygon fill="#000000" stroke="#000000" points="75.9202,-44.7369 70.1742,-35.8355 69.1151,-46.3773 75.9202,-44.7369"/>
</g>
</g>
</svg>
