<?xml version="1.0" encoding="UTF-8" standalone="no"?>
<!DOCTYPE svg PUBLIC "-//W3C//DTD SVG 1.1//EN"
 "http://www.w3.org/Graphics/SVG/1.1/DTD/svg11.dtd">
<!-- Generated by graphviz version 2.40.1 (20161225.0304)
 -->
<!-- Title: graph_name Pages: 1 -->
<svg width="802pt" height="350pt"
 viewBox="0.00 0.00 801.64 349.74" xmlns="http://www.w3.org/2000/svg" xmlns:xlink="http://www.w3.org/1999/xlink">
<g id="graph0" class="graph" transform="scale(1 1) rotate(0) translate(4 345.7401)">
<title>graph_name</title>
<polygon fill="#ffffff" stroke="transparent" points="-4,4 -4,-345.7401 797.6385,-345.7401 797.6385,4 -4,4"/>
<!-- text caller -->
<g id="node1" class="node">
<title>text caller</title>
<ellipse fill="none" stroke="#000000" cx="377.0456" cy="-251.7401" rx="58.4896" ry="18"/>
<text text-anchor="middle" x="377.0456" y="-248.0401" font-family="Times,serif" font-size="14.00" fill="#000000">text caller</text>
</g>
<!-- plt -->
<g id="node3" class="node">
<title>plt</title>
<ellipse fill="none" stroke="#000000" cx="211.0456" cy="-170.8701" rx="27" ry="18"/>
<text text-anchor="middle" x="211.0456" y="-167.1701" font-family="Times,serif" font-size="14.00" fill="#000000">plt</text>
</g>
<!-- text caller&#45;&gt;plt -->
<g id="edge3" class="edge">
<title>text caller&#45;&gt;plt</title>
<path fill="none" stroke="#000000" d="M337.7525,-238.3192C311.329,-228.6028 276.144,-214.3021 247.0456,-197.7401 243.4871,-195.7147 239.8741,-193.39 236.3786,-190.9739"/>
<polygon fill="#000000" stroke="#000000" points="238.1748,-187.9523 228.0297,-184.8982 234.0559,-193.6123 238.1748,-187.9523"/>
</g>
<!-- text callee\n(in a same object file) -->
<g id="node11" class="node">
<title>text callee\n(in a same object file)</title>
<ellipse fill="none" stroke="#000000" cx="377.0456" cy="-170.8701" rx="120.8306" ry="26.7407"/>
<text text-anchor="middle" x="377.0456" y="-174.6701" font-family="Times,serif" font-size="14.00" fill="#000000">text callee</text>
<text text-anchor="middle" x="377.0456" y="-159.6701" font-family="Times,serif" font-size="14.00" fill="#000000">(in a same object file)</text>
</g>
<!-- text caller&#45;&gt;text callee\n(in a same object file) -->
<g id="edge1" class="edge">
<title>text caller&#45;&gt;text callee\n(in a same object file)</title>
<path fill="none" stroke="#000000" d="M377.0456,-233.3894C377.0456,-225.8196 377.0456,-216.7601 377.0456,-207.9182"/>
<polygon fill="#000000" stroke="#000000" points="380.5457,-207.7406 377.0456,-197.7407 373.5457,-207.7407 380.5457,-207.7406"/>
</g>
<!-- text callee\n(in a different object file) -->
<g id="node12" class="node">
<title>text callee\n(in a different object file)</title>
<ellipse fill="none" stroke="#000000" cx="655.0456" cy="-170.8701" rx="138.6859" ry="26.7407"/>
<text text-anchor="middle" x="655.0456" y="-174.6701" font-family="Times,serif" font-size="14.00" fill="#000000">text callee</text>
<text text-anchor="middle" x="655.0456" y="-159.6701" font-family="Times,serif" font-size="14.00" fill="#000000">(in a different object file)</text>
</g>
<!-- text caller&#45;&gt;text callee\n(in a different object file) -->
<g id="edge2" class="edge">
<title>text caller&#45;&gt;text callee\n(in a different object file)</title>
<path fill="none" stroke="#000000" d="M419.5704,-239.3697C458.998,-227.9002 518.8607,-210.4862 568.3602,-196.0868"/>
<polygon fill="#000000" stroke="#000000" points="569.4884,-199.4037 578.1128,-193.2498 567.5331,-192.6824 569.4884,-199.4037"/>
</g>
<!-- text callee -->
<g id="node2" class="node">
<title>text callee</title>
<ellipse fill="none" stroke="#000000" cx="444.0456" cy="-323.7401" rx="59.5901" ry="18"/>
<text text-anchor="middle" x="444.0456" y="-320.0401" font-family="Times,serif" font-size="14.00" fill="#000000">text callee</text>
</g>
<!-- got -->
<g id="node4" class="node">
<title>got</title>
<ellipse fill="none" stroke="#000000" cx="195.0456" cy="-90" rx="27" ry="18"/>
<text text-anchor="middle" x="195.0456" y="-86.3" font-family="Times,serif" font-size="14.00" fill="#000000">got</text>
</g>
<!-- plt&#45;&gt;got -->
<g id="edge4" class="edge">
<title>plt&#45;&gt;got</title>
<path fill="none" stroke="#000000" d="M207.4946,-152.9224C205.4646,-142.6618 202.8741,-129.5687 200.5825,-117.9857"/>
<polygon fill="#000000" stroke="#000000" points="203.9609,-117.028 198.5866,-107.8975 197.094,-118.3867 203.9609,-117.028"/>
</g>
<!-- symtab -->
<g id="node5" class="node">
<title>symtab</title>
<ellipse fill="none" stroke="#000000" cx="256.0456" cy="-251.7401" rx="44.6926" ry="18"/>
<text text-anchor="middle" x="256.0456" y="-248.0401" font-family="Times,serif" font-size="14.00" fill="#000000">symtab</text>
</g>
<!-- dynsym -->
<g id="node6" class="node">
<title>dynsym</title>
<ellipse fill="none" stroke="#000000" cx="87.0456" cy="-90" rx="46.5926" ry="18"/>
<text text-anchor="middle" x="87.0456" y="-86.3" font-family="Times,serif" font-size="14.00" fill="#000000">dynsym</text>
</g>
<!-- dynstr -->
<g id="node7" class="node">
<title>dynstr</title>
<ellipse fill="none" stroke="#000000" cx="49.0456" cy="-18" rx="40.8928" ry="18"/>
<text text-anchor="middle" x="49.0456" y="-14.3" font-family="Times,serif" font-size="14.00" fill="#000000">dynstr</text>
</g>
<!-- dynsym&#45;&gt;dynstr -->
<g id="edge8" class="edge">
<title>dynsym&#45;&gt;dynstr</title>
<path fill="none" stroke="#000000" d="M77.6523,-72.2022C73.2807,-63.9192 67.9883,-53.8915 63.1503,-44.7248"/>
<polygon fill="#000000" stroke="#000000" points="66.0938,-42.8032 58.3308,-35.593 59.9031,-46.0706 66.0938,-42.8032"/>
</g>
<!-- rela.plt -->
<g id="node8" class="node">
<title>rela.plt</title>
<ellipse fill="none" stroke="#000000" cx="122.0456" cy="-170.8701" rx="44.393" ry="18"/>
<text text-anchor="middle" x="122.0456" y="-167.1701" font-family="Times,serif" font-size="14.00" fill="#000000">rela.plt</text>
</g>
<!-- rela.plt&#45;&gt;got -->
<g id="edge7" class="edge">
<title>rela.plt&#45;&gt;got</title>
<path fill="none" stroke="#000000" d="M137.527,-153.7196C148.202,-141.8937 162.5156,-126.037 174.1933,-113.1003"/>
<polygon fill="#000000" stroke="#000000" points="176.965,-115.2532 181.0676,-105.4849 171.7688,-110.5627 176.965,-115.2532"/>
</g>
<!-- rela.plt&#45;&gt;dynsym -->
<g id="edge12" class="edge">
<title>rela.plt&#45;&gt;dynsym</title>
<path fill="none" stroke="#000000" d="M114.2779,-152.9224C109.7466,-142.4524 103.9388,-129.0331 98.8515,-117.2785"/>
<polygon fill="#000000" stroke="#000000" points="101.9755,-115.6847 94.7915,-107.8975 95.5514,-118.4651 101.9755,-115.6847"/>
</g>
<!-- rela.text -->
<g id="node9" class="node">
<title>rela.text</title>
<ellipse fill="none" stroke="#000000" cx="316.0456" cy="-323.7401" rx="50.0912" ry="18"/>
<text text-anchor="middle" x="316.0456" y="-320.0401" font-family="Times,serif" font-size="14.00" fill="#000000">rela.text</text>
</g>
<!-- rela.text&#45;&gt;text caller -->
<g id="edge6" class="edge">
<title>rela.text&#45;&gt;text caller</title>
<path fill="none" stroke="#000000" d="M330.812,-306.3109C338.2496,-297.5321 347.4062,-286.7242 355.603,-277.0494"/>
<polygon fill="#000000" stroke="#000000" points="358.41,-279.1507 362.2037,-269.2584 353.0691,-274.6257 358.41,-279.1507"/>
</g>
<!-- rela.text&#45;&gt;symtab -->
<g id="edge5" class="edge">
<title>rela.text&#45;&gt;symtab</title>
<path fill="none" stroke="#000000" d="M301.5212,-306.3109C294.1513,-297.467 285.0655,-286.564 276.9576,-276.8346"/>
<polygon fill="#000000" stroke="#000000" points="279.5268,-274.4504 270.4361,-269.0088 274.1492,-278.9317 279.5268,-274.4504"/>
</g>
<!-- dynamic -->
<g id="node10" class="node">
<title>dynamic</title>
<ellipse fill="none" stroke="#000000" cx="50.0456" cy="-251.7401" rx="50.0912" ry="18"/>
<text text-anchor="middle" x="50.0456" y="-248.0401" font-family="Times,serif" font-size="14.00" fill="#000000">dynamic</text>
</g>
<!-- dynamic&#45;&gt;dynsym -->
<g id="edge10" class="edge">
<title>dynamic&#45;&gt;dynsym</title>
<path fill="none" stroke="#000000" d="M52.4056,-233.6488C55.4066,-212.1028 61.1616,-175.1158 69.0456,-144 71.2198,-135.4189 74.0764,-126.2314 76.8715,-117.9125"/>
<polygon fill="#000000" stroke="#000000" points="80.2369,-118.8899 80.2006,-108.2951 73.622,-116.6001 80.2369,-118.8899"/>
</g>
<!-- dynamic&#45;&gt;dynstr -->
<g id="edge11" class="edge">
<title>dynamic&#45;&gt;dynstr</title>
<path fill="none" stroke="#000000" d="M45.0038,-233.7944C36.5873,-201.3529 21.4956,-130.8498 31.0456,-72 32.4635,-63.2621 35.0931,-54.0275 37.9127,-45.7136"/>
<polygon fill="#000000" stroke="#000000" points="41.2709,-46.7187 41.3776,-36.1244 34.6875,-44.3399 41.2709,-46.7187"/>
</g>
<!-- dynamic&#45;&gt;rela.plt -->
<g id="edge9" class="edge">
<title>dynamic&#45;&gt;rela.plt</title>
<path fill="none" stroke="#000000" d="M65.3149,-234.5897C75.4335,-223.2245 88.8666,-208.1365 100.1212,-195.4953"/>
<polygon fill="#000000" stroke="#000000" points="102.7627,-197.792 106.7982,-187.9958 97.5345,-193.1372 102.7627,-197.792"/>
</g>
</g>
</svg>
